<mxfile host="app.diagrams.net" modified="2021-12-29T21:40:21.151Z" agent="5.0 (Macintosh; Intel Mac OS X 10_15_7) AppleWebKit/537.36 (KHTML, like Gecko) Chrome/96.0.4664.110 Safari/537.36" etag="PfpP7ec8bJi9dFUU773n" version="16.1.0" type="github">
  <diagram id="J8h-p7_rt16rRzqVJKDh" name="Page-1">
    <mxGraphModel dx="1017" dy="561" grid="1" gridSize="10" guides="1" tooltips="1" connect="1" arrows="1" fold="1" page="1" pageScale="1" pageWidth="850" pageHeight="1100" math="0" shadow="0">
      <root>
        <mxCell id="0" />
        <mxCell id="1" parent="0" />
        <mxCell id="U2cnuOnHCQHUp6ca9xCw-3" value="" style="edgeStyle=orthogonalEdgeStyle;rounded=0;orthogonalLoop=1;jettySize=auto;html=1;" edge="1" parent="1" source="U2cnuOnHCQHUp6ca9xCw-1" target="U2cnuOnHCQHUp6ca9xCw-2">
          <mxGeometry relative="1" as="geometry" />
        </mxCell>
        <mxCell id="U2cnuOnHCQHUp6ca9xCw-1" value="Create inventory" style="ellipse;whiteSpace=wrap;html=1;" vertex="1" parent="1">
          <mxGeometry x="70" y="70" width="120" height="80" as="geometry" />
        </mxCell>
        <mxCell id="U2cnuOnHCQHUp6ca9xCw-5" value="" style="edgeStyle=orthogonalEdgeStyle;rounded=0;orthogonalLoop=1;jettySize=auto;html=1;" edge="1" parent="1" source="U2cnuOnHCQHUp6ca9xCw-2" target="U2cnuOnHCQHUp6ca9xCw-4">
          <mxGeometry relative="1" as="geometry" />
        </mxCell>
        <mxCell id="U2cnuOnHCQHUp6ca9xCw-2" value="Search Group Owner" style="whiteSpace=wrap;html=1;" vertex="1" parent="1">
          <mxGeometry x="270" y="80" width="120" height="60" as="geometry" />
        </mxCell>
        <mxCell id="U2cnuOnHCQHUp6ca9xCw-8" value="" style="edgeStyle=orthogonalEdgeStyle;rounded=0;orthogonalLoop=1;jettySize=auto;html=1;" edge="1" parent="1" source="U2cnuOnHCQHUp6ca9xCw-4" target="U2cnuOnHCQHUp6ca9xCw-7">
          <mxGeometry relative="1" as="geometry" />
        </mxCell>
        <mxCell id="U2cnuOnHCQHUp6ca9xCw-4" value="Owner Name" style="whiteSpace=wrap;html=1;" vertex="1" parent="1">
          <mxGeometry x="470" y="80" width="120" height="60" as="geometry" />
        </mxCell>
        <mxCell id="U2cnuOnHCQHUp6ca9xCw-10" value="" style="edgeStyle=orthogonalEdgeStyle;rounded=0;orthogonalLoop=1;jettySize=auto;html=1;" edge="1" parent="1" source="U2cnuOnHCQHUp6ca9xCw-7" target="U2cnuOnHCQHUp6ca9xCw-9">
          <mxGeometry relative="1" as="geometry" />
        </mxCell>
        <mxCell id="U2cnuOnHCQHUp6ca9xCw-7" value="Inventory Name" style="whiteSpace=wrap;html=1;" vertex="1" parent="1">
          <mxGeometry x="670" y="80" width="120" height="60" as="geometry" />
        </mxCell>
        <mxCell id="U2cnuOnHCQHUp6ca9xCw-9" value="Inventory created" style="ellipse;whiteSpace=wrap;html=1;" vertex="1" parent="1">
          <mxGeometry x="870" y="80" width="120" height="60" as="geometry" />
        </mxCell>
        <mxCell id="U2cnuOnHCQHUp6ca9xCw-21" value="" style="edgeStyle=orthogonalEdgeStyle;rounded=0;orthogonalLoop=1;jettySize=auto;html=1;" edge="1" parent="1" source="U2cnuOnHCQHUp6ca9xCw-11" target="U2cnuOnHCQHUp6ca9xCw-20">
          <mxGeometry relative="1" as="geometry" />
        </mxCell>
        <mxCell id="U2cnuOnHCQHUp6ca9xCw-11" value="Inventory Summary" style="ellipse;whiteSpace=wrap;html=1;" vertex="1" parent="1">
          <mxGeometry x="70" y="210" width="120" height="80" as="geometry" />
        </mxCell>
        <mxCell id="U2cnuOnHCQHUp6ca9xCw-30" value="" style="edgeStyle=orthogonalEdgeStyle;rounded=0;orthogonalLoop=1;jettySize=auto;html=1;" edge="1" parent="1" source="U2cnuOnHCQHUp6ca9xCw-14" target="U2cnuOnHCQHUp6ca9xCw-29">
          <mxGeometry relative="1" as="geometry" />
        </mxCell>
        <mxCell id="U2cnuOnHCQHUp6ca9xCw-14" value="Sublocations" style="shape=process;whiteSpace=wrap;html=1;backgroundOutline=1;" vertex="1" parent="1">
          <mxGeometry x="950" y="220" width="120" height="60" as="geometry" />
        </mxCell>
        <mxCell id="U2cnuOnHCQHUp6ca9xCw-24" value="" style="edgeStyle=orthogonalEdgeStyle;rounded=0;orthogonalLoop=1;jettySize=auto;html=1;" edge="1" parent="1" source="U2cnuOnHCQHUp6ca9xCw-17" target="U2cnuOnHCQHUp6ca9xCw-23">
          <mxGeometry relative="1" as="geometry" />
        </mxCell>
        <mxCell id="U2cnuOnHCQHUp6ca9xCw-17" value="Tags" style="whiteSpace=wrap;html=1;" vertex="1" parent="1">
          <mxGeometry x="440" y="220" width="120" height="60" as="geometry" />
        </mxCell>
        <mxCell id="U2cnuOnHCQHUp6ca9xCw-22" value="" style="edgeStyle=orthogonalEdgeStyle;rounded=0;orthogonalLoop=1;jettySize=auto;html=1;" edge="1" parent="1" source="U2cnuOnHCQHUp6ca9xCw-20" target="U2cnuOnHCQHUp6ca9xCw-17">
          <mxGeometry relative="1" as="geometry" />
        </mxCell>
        <mxCell id="U2cnuOnHCQHUp6ca9xCw-20" value="&lt;span&gt;Information on Inventory&lt;/span&gt;" style="shape=process;whiteSpace=wrap;html=1;backgroundOutline=1;" vertex="1" parent="1">
          <mxGeometry x="250" y="220" width="120" height="60" as="geometry" />
        </mxCell>
        <mxCell id="U2cnuOnHCQHUp6ca9xCw-27" value="" style="edgeStyle=orthogonalEdgeStyle;rounded=0;orthogonalLoop=1;jettySize=auto;html=1;" edge="1" parent="1" source="U2cnuOnHCQHUp6ca9xCw-23" target="U2cnuOnHCQHUp6ca9xCw-26">
          <mxGeometry relative="1" as="geometry" />
        </mxCell>
        <mxCell id="U2cnuOnHCQHUp6ca9xCw-23" value="Colleagues" style="whiteSpace=wrap;html=1;" vertex="1" parent="1">
          <mxGeometry x="610" y="220" width="120" height="60" as="geometry" />
        </mxCell>
        <mxCell id="U2cnuOnHCQHUp6ca9xCw-28" value="" style="edgeStyle=orthogonalEdgeStyle;rounded=0;orthogonalLoop=1;jettySize=auto;html=1;" edge="1" parent="1" source="U2cnuOnHCQHUp6ca9xCw-26" target="U2cnuOnHCQHUp6ca9xCw-14">
          <mxGeometry relative="1" as="geometry" />
        </mxCell>
        <mxCell id="U2cnuOnHCQHUp6ca9xCw-26" value="Inventory Access" style="whiteSpace=wrap;html=1;" vertex="1" parent="1">
          <mxGeometry x="760" y="220" width="120" height="60" as="geometry" />
        </mxCell>
        <mxCell id="U2cnuOnHCQHUp6ca9xCw-29" value="Inventory Summary Page End" style="ellipse;whiteSpace=wrap;html=1;" vertex="1" parent="1">
          <mxGeometry x="1150" y="220" width="120" height="60" as="geometry" />
        </mxCell>
        <mxCell id="U2cnuOnHCQHUp6ca9xCw-33" value="" style="edgeStyle=orthogonalEdgeStyle;rounded=0;orthogonalLoop=1;jettySize=auto;html=1;" edge="1" parent="1" source="U2cnuOnHCQHUp6ca9xCw-31" target="U2cnuOnHCQHUp6ca9xCw-32">
          <mxGeometry relative="1" as="geometry" />
        </mxCell>
        <mxCell id="U2cnuOnHCQHUp6ca9xCw-31" value="Sublocations create" style="ellipse;whiteSpace=wrap;html=1;" vertex="1" parent="1">
          <mxGeometry x="60" y="360" width="120" height="80" as="geometry" />
        </mxCell>
        <mxCell id="U2cnuOnHCQHUp6ca9xCw-35" value="" style="edgeStyle=orthogonalEdgeStyle;rounded=0;orthogonalLoop=1;jettySize=auto;html=1;" edge="1" parent="1" source="U2cnuOnHCQHUp6ca9xCw-32" target="U2cnuOnHCQHUp6ca9xCw-34">
          <mxGeometry relative="1" as="geometry" />
        </mxCell>
        <mxCell id="U2cnuOnHCQHUp6ca9xCw-32" value="Add a sublocation" style="whiteSpace=wrap;html=1;" vertex="1" parent="1">
          <mxGeometry x="260" y="370" width="120" height="60" as="geometry" />
        </mxCell>
        <mxCell id="U2cnuOnHCQHUp6ca9xCw-37" value="" style="edgeStyle=orthogonalEdgeStyle;rounded=0;orthogonalLoop=1;jettySize=auto;html=1;" edge="1" parent="1" source="U2cnuOnHCQHUp6ca9xCw-34" target="U2cnuOnHCQHUp6ca9xCw-36">
          <mxGeometry relative="1" as="geometry" />
        </mxCell>
        <mxCell id="U2cnuOnHCQHUp6ca9xCw-34" value="Building/Room" style="whiteSpace=wrap;html=1;" vertex="1" parent="1">
          <mxGeometry x="460" y="370" width="120" height="60" as="geometry" />
        </mxCell>
        <mxCell id="U2cnuOnHCQHUp6ca9xCw-42" value="" style="edgeStyle=orthogonalEdgeStyle;rounded=0;orthogonalLoop=1;jettySize=auto;html=1;" edge="1" parent="1" source="U2cnuOnHCQHUp6ca9xCw-36" target="U2cnuOnHCQHUp6ca9xCw-41">
          <mxGeometry relative="1" as="geometry" />
        </mxCell>
        <mxCell id="U2cnuOnHCQHUp6ca9xCw-36" value="Name" style="whiteSpace=wrap;html=1;" vertex="1" parent="1">
          <mxGeometry x="660" y="370" width="120" height="60" as="geometry" />
        </mxCell>
        <mxCell id="U2cnuOnHCQHUp6ca9xCw-38" value="Barcode" style="whiteSpace=wrap;html=1;" vertex="1" parent="1">
          <mxGeometry x="660" y="500" width="120" height="60" as="geometry" />
        </mxCell>
        <mxCell id="U2cnuOnHCQHUp6ca9xCw-40" value="" style="endArrow=classic;startArrow=classic;html=1;rounded=0;entryX=0.5;entryY=1;entryDx=0;entryDy=0;exitX=0.5;exitY=0;exitDx=0;exitDy=0;" edge="1" parent="1" source="U2cnuOnHCQHUp6ca9xCw-38" target="U2cnuOnHCQHUp6ca9xCw-36">
          <mxGeometry width="50" height="50" relative="1" as="geometry">
            <mxPoint x="570" y="530" as="sourcePoint" />
            <mxPoint x="620" y="480" as="targetPoint" />
          </mxGeometry>
        </mxCell>
        <mxCell id="U2cnuOnHCQHUp6ca9xCw-47" value="Option" style="edgeLabel;html=1;align=center;verticalAlign=middle;resizable=0;points=[];" vertex="1" connectable="0" parent="U2cnuOnHCQHUp6ca9xCw-40">
          <mxGeometry x="0.1143" relative="1" as="geometry">
            <mxPoint as="offset" />
          </mxGeometry>
        </mxCell>
        <mxCell id="U2cnuOnHCQHUp6ca9xCw-44" value="" style="edgeStyle=orthogonalEdgeStyle;rounded=0;orthogonalLoop=1;jettySize=auto;html=1;" edge="1" parent="1" source="U2cnuOnHCQHUp6ca9xCw-41" target="U2cnuOnHCQHUp6ca9xCw-43">
          <mxGeometry relative="1" as="geometry" />
        </mxCell>
        <mxCell id="U2cnuOnHCQHUp6ca9xCw-41" value="Temperature" style="whiteSpace=wrap;html=1;" vertex="1" parent="1">
          <mxGeometry x="860" y="370" width="120" height="60" as="geometry" />
        </mxCell>
        <mxCell id="U2cnuOnHCQHUp6ca9xCw-46" value="" style="edgeStyle=orthogonalEdgeStyle;rounded=0;orthogonalLoop=1;jettySize=auto;html=1;" edge="1" parent="1" source="U2cnuOnHCQHUp6ca9xCw-43" target="U2cnuOnHCQHUp6ca9xCw-45">
          <mxGeometry relative="1" as="geometry" />
        </mxCell>
        <mxCell id="U2cnuOnHCQHUp6ca9xCw-43" value="Pressure" style="whiteSpace=wrap;html=1;" vertex="1" parent="1">
          <mxGeometry x="1060" y="370" width="120" height="60" as="geometry" />
        </mxCell>
        <mxCell id="U2cnuOnHCQHUp6ca9xCw-45" value="Sublocation created" style="ellipse;whiteSpace=wrap;html=1;" vertex="1" parent="1">
          <mxGeometry x="1260" y="370" width="120" height="60" as="geometry" />
        </mxCell>
      </root>
    </mxGraphModel>
  </diagram>
</mxfile>
